<?xml version="1.0" encoding="utf-8"?>
<!-- Generator: Adobe Illustrator 26.2.1, SVG Export Plug-In . SVG Version: 6.00 Build 0)  -->
<svg version="1.1" id="Layer_1" xmlns="http://www.w3.org/2000/svg" xmlns:xlink="http://www.w3.org/1999/xlink" x="0px" y="0px"
	 viewBox="0 0 128 128" style="enable-background:new 0 0 128 128;" xml:space="preserve">
<style type="text/css">
	.st0{opacity:0.8;}
	.st1{fill:#606060;}
</style>
<g class="st0">
	<path class="st1" d="M93.9,45.8l16.3,16.4c0.4,0.4,0.6,0.9,0.6,1.4c0,0.6-0.2,1.1-0.6,1.4L94.1,81.2c-0.8,0.8-2,0.8-2.8,0
		c-0.4-0.4-0.6-0.9-0.6-1.4s0.2-1.1,0.6-1.4l12.8-12.9H40.3c-1.1,0-2-0.9-2-2s0.9-2,2-2H104L91.2,48.6c-0.4-0.4-0.6-0.9-0.6-1.4
		s0.2-1,0.6-1.4C91.8,45,93.2,45,93.9,45.8z"/>
	<path class="st1" d="M31.1,15.5h36c7.7,0,14,6.3,14,14v11.3c0,0.6-0.4,1-1,1h-2c-0.6,0-1-0.4-1-1V29.5c0-5.5-4.5-10-10-10h-36
		c-5.5,0-10,4.5-10,10v69c0,5.5,4.5,10,10,10h36c5.5,0,10-4.5,10-10V86.2c0-0.6,0.4-1,1-1h2c0.6,0,1,0.4,1,1v12.3
		c0,7.7-6.3,14-14,14h-36c-7.7,0-14-6.3-14-14v-69C17.1,21.8,23.4,15.5,31.1,15.5z"/>
</g>
</svg>
