<?xml version="1.0" encoding="utf-8"?>
<!-- Generator: Adobe Illustrator 26.2.1, SVG Export Plug-In . SVG Version: 6.00 Build 0)  -->
<svg version="1.1" id="Livello_1" xmlns="http://www.w3.org/2000/svg" xmlns:xlink="http://www.w3.org/1999/xlink" x="0px" y="0px"
	 viewBox="0 0 500 500" style="enable-background:new 0 0 500 500;" xml:space="preserve">
<style type="text/css">
	.st0{fill:#E6B300;}
	.st1{fill:#DD7E0E;}
	.st2{fill:#FFFFFF;}
	.st3{fill:#241726;}
	.st4{fill:#FBFCFF;}
</style>
<g>
	<path class="st0" d="M475,175.6l-33.7-2c0,0-1.6,91.4-69.1,133.1c1.6-2.3,3.1-4.7,4.6-7c50.4-78.9,71.5-212.8-65.3-232.9
		C185.1,48.1,138.3,185.2,183.9,274c6.1,11.8,14.4,22.8,24.4,32.6c-70.8-36-95.8-157.8-106.7-162.5C89.9,139,16.5,437.6,24.2,446
		c7.7,8.4,39.7-38,152.6-38.4c73.3-0.3,121.6-23.6,155.6-54.3c30.1-1.5,60-11.9,85.1-34C483.9,260.9,475,175.6,475,175.6z
		 M343.2,267.2c-14.5-2.1-43.1-7.2-67.7-17.6c12.9-8.3,25.5-25.5,29.2-60.3c1.4-13.2-2.1-25.6-8.7-36.5
		c32.4,3.4,67.7,23.5,85.1,34.6C377.9,215.8,363.6,244.3,343.2,267.2z M272.9,153.8c32,35.3,4.6,88.5-26.7,78.1
		c-14.2-13.1-19.8-30.6-6.3-53.9C248.1,163.9,259.7,156.6,272.9,153.8z M371.8,134.6c6.1,11.8,9.2,24.4,9.8,37.2
		c-11.5-7.4-29.9-17.9-51-25.3c2.8-9.9,7.2-26,10.4-40.2C354.8,113.5,365.9,123.3,371.8,134.6z M319.2,97.8l-7.8,43.1
		c-9.1-2.1-18.5-3.4-27.9-3.4c-14-13.6-33.1-23.1-51.5-26.3C256.2,92.1,290.2,89.7,319.2,97.8z M200.5,182.8
		c0.9-22.3,6.4-39.8,14.9-53.2c10.6-1.8,24.7,0.2,42.3,11.7c-37.7,13-64.1,59-33.7,98.3c24.3,31.4,74.7,41.4,101.8,44.6
		c-18.2,15.4-39.3,26.5-60.7,30.5C229.9,298.8,197.5,261.4,200.5,182.8z"/>
	<path class="st1" d="M318.3,268.4c0,0,23.7-107.2,27.7-106.9c4,0.3,15.2,8.2,15.2,8.2S334,273.6,331.4,276
		C328.9,278.4,318.3,268.4,318.3,268.4z"/>
	<path class="st2" d="M45,409.9c0,0,51.1-190.2,57.7-208.1c0,0,30.4,70.4,9.4,124.9S45,409.9,45,409.9z"/>
	<path class="st3" d="M78.9,409.6c-0.4,0-0.7-0.2-0.9-0.5c-0.3-0.5-0.1-1.1,0.4-1.4c0.2-0.1,24.7-14.5,42.1-44.6
		c16.1-27.7,29.4-74.8,1.4-141.8c-0.2-0.5,0-1.2,0.6-1.4c0.5-0.2,1.2,0,1.4,0.6c15.7,37.4,28.1,92.8-1.5,143.7
		c-17.8,30.5-42.6,45.1-42.9,45.2C79.3,409.5,79.1,409.6,78.9,409.6z"/>
	<path class="st1" d="M441.3,173.6c0,0,3.8-57.6-18.3-78.2l-34.1-11.7l71.9-38.3l-12,40.5c0,0,25.2,35.5,26.3,89.7L441.3,173.6z"/>
	<polygon class="st0" points="280.3,264.4 268.2,320 281.4,323.9 298.8,268.4 	"/>
	<path class="st3" d="M247.5,318.3c-4.7,0-8.9-0.4-12.6-0.9c-16.8-2.6-26-9.4-26.4-9.7c-0.5-0.3-0.6-1-0.2-1.5
		c0.4-0.5,1-0.6,1.5-0.2c0.4,0.3,37.1,27,95.9-7.2c0.5-0.3,1.1-0.1,1.4,0.4c0.3,0.5,0.1,1.1-0.4,1.4
		C282.8,314.4,262.6,318.3,247.5,318.3z"/>
	<path class="st3" d="M303.4,377c-0.4,0-0.7-0.2-0.9-0.5c-0.3-0.5-0.2-1.1,0.3-1.5c49.3-30.6,72.8-75.5,73-76
		c0.3-0.5,0.9-0.7,1.4-0.5c0.5,0.3,0.7,0.9,0.5,1.4c-0.2,0.5-23.9,45.9-73.8,76.8C303.8,377,303.6,377,303.4,377z"/>
	<g>
		<path class="st4" d="M195.5,392.7c-2.4,0-4-0.7-4.1-0.7c-0.5-0.2-0.8-0.9-0.5-1.4c0.2-0.5,0.9-0.8,1.4-0.5l0,0
			c0.2,0.1,4.8,2,10-1.8c0.5-0.3,1.1-0.2,1.5,0.2c0.3,0.5,0.2,1.1-0.2,1.5C200.5,392.1,197.7,392.7,195.5,392.7z"/>
		<path class="st4" d="M200.9,385.4c-2.4,0-4-0.7-4.1-0.7c-0.5-0.2-0.8-0.9-0.5-1.4c0.2-0.5,0.9-0.8,1.4-0.5c0.2,0.1,4.8,2,10-1.8
			c0.5-0.3,1.1-0.2,1.5,0.2c0.3,0.5,0.2,1.1-0.2,1.5C205.9,384.8,203.1,385.4,200.9,385.4z"/>
		<path class="st4" d="M205.1,399.9c-2.4,0-4-0.7-4.1-0.7c-0.5-0.2-0.8-0.9-0.5-1.4c0.2-0.5,0.9-0.8,1.4-0.5c0.2,0.1,4.8,2,10-1.8
			c0.5-0.3,1.1-0.2,1.5,0.2c0.3,0.5,0.2,1.1-0.2,1.5C210.1,399.3,207.3,399.9,205.1,399.9z"/>
		<path class="st4" d="M211.9,390.8c-2.4,0-4-0.7-4.1-0.7c-0.5-0.2-0.8-0.9-0.5-1.4c0.2-0.5,0.9-0.8,1.4-0.5c0.2,0.1,4.8,2,10-1.8
			c0.5-0.3,1.1-0.2,1.5,0.2c0.3,0.5,0.2,1.1-0.2,1.5C216.9,390.3,214.1,390.8,211.9,390.8z"/>
		<path class="st4" d="M225.1,396.3c-2.4,0-4-0.7-4.1-0.8c-0.5-0.2-0.8-0.9-0.5-1.4c0.2-0.5,0.9-0.8,1.4-0.5c0.2,0.1,4.8,2,10-1.8
			c0.5-0.3,1.1-0.2,1.5,0.2c0.3,0.5,0.2,1.1-0.2,1.5C230.1,395.7,227.3,396.3,225.1,396.3z"/>
		<path class="st4" d="M234.1,387.3c-2.4,0-4-0.7-4.1-0.8c-0.5-0.2-0.8-0.9-0.5-1.4c0.2-0.5,0.9-0.8,1.4-0.5l0,0
			c0.2,0.1,4.8,2,10-1.8c0.5-0.3,1.1-0.2,1.5,0.2c0.3,0.5,0.2,1.1-0.2,1.5C239.1,386.7,236.3,387.3,234.1,387.3z"/>
		<path class="st4" d="M221,382.1c-2.4,0-4-0.7-4.1-0.7c-0.5-0.2-0.8-0.9-0.5-1.4c0.2-0.5,0.9-0.8,1.4-0.5c0.2,0.1,4.8,2,10-1.8
			c0.5-0.3,1.1-0.2,1.5,0.2c0.3,0.5,0.2,1.1-0.2,1.5C226,381.5,223.1,382.1,221,382.1z"/>
		<path class="st4" d="M239.3,379.5c-2.4,0-4-0.7-4.1-0.7c-0.5-0.2-0.8-0.9-0.5-1.4c0.2-0.5,0.9-0.8,1.4-0.5l0,0
			c0.2,0.1,4.8,2,10-1.8c0.5-0.3,1.1-0.2,1.5,0.2c0.3,0.5,0.2,1.1-0.2,1.5C244.4,379,241.5,379.5,239.3,379.5z"/>
		<path class="st4" d="M232.6,372.5c-2.4,0-4-0.7-4.1-0.8c-0.5-0.2-0.8-0.9-0.5-1.4c0.2-0.5,0.9-0.8,1.4-0.5l0,0
			c0.2,0.1,4.8,2,10-1.8c0.5-0.3,1.1-0.2,1.5,0.2c0.3,0.5,0.2,1.1-0.2,1.5C237.6,371.9,234.8,372.5,232.6,372.5z"/>
		<path class="st4" d="M247.6,391.6c-2.4,0-4-0.7-4.1-0.8c-0.5-0.2-0.8-0.9-0.5-1.4c0.2-0.5,0.9-0.8,1.4-0.5l0,0
			c0.2,0.1,4.8,2,10-1.8c0.5-0.3,1.1-0.2,1.5,0.2c0.3,0.5,0.2,1.1-0.2,1.5C252.6,391,249.8,391.6,247.6,391.6z"/>
		<path class="st4" d="M250.7,383.3c-0.8,0-1.4-0.1-1.5-0.1c-0.6-0.1-1-0.7-0.8-1.2c0.1-0.6,0.7-0.9,1.2-0.8l0,0
			c0.2,0,5.3,0.9,9.3-4c0.4-0.4,1-0.5,1.5-0.1c0.4,0.4,0.5,1,0.1,1.5C257.1,382.7,252.9,383.3,250.7,383.3z"/>
	</g>
	<g>
		<path class="st4" d="M428.6,277.6c-0.4,0-0.7-0.2-0.9-0.5c-0.3-0.5-0.1-1.1,0.4-1.4c0.2-0.1,4.5-2.6,4.6-9.1c0-0.6,0.4-1.1,1.1-1
			c0.6,0,1,0.5,1,1.1c-0.1,7.7-5.5,10.7-5.7,10.9C429,277.6,428.8,277.6,428.6,277.6z"/>
		<path class="st4" d="M426.1,269c-0.4,0-0.7-0.2-0.9-0.5c-0.3-0.5-0.1-1.1,0.4-1.4c0.2-0.1,4.5-2.6,4.6-9.1c0-0.6,0.4-1.1,1.1-1
			c0.6,0,1,0.5,1,1.1c-0.1,7.7-5.5,10.7-5.7,10.9C426.4,268.9,426.3,269,426.1,269z"/>
		<path class="st4" d="M440.1,274.4c-0.4,0-0.7-0.2-0.9-0.5c-0.3-0.5-0.1-1.1,0.4-1.4l0,0c0.2-0.1,4.5-2.6,4.6-9.1
			c0-0.6,0.5-1.1,1.1-1c0.6,0,1,0.5,1,1.1c-0.1,7.7-5.5,10.7-5.7,10.9C440.5,274.3,440.3,274.4,440.1,274.4z"/>
		<path class="st4" d="M437.1,263.5c-0.4,0-0.7-0.2-0.9-0.5c-0.3-0.5-0.1-1.1,0.4-1.4c0.2-0.1,4.5-2.6,4.6-9.1c0-0.6,0.5-1.1,1.1-1
			c0.6,0,1,0.5,1,1.1c-0.1,7.7-5.5,10.7-5.7,10.9C437.4,263.4,437.3,263.5,437.1,263.5z"/>
		<path class="st4" d="M449.4,256.3c-0.4,0-0.7-0.2-0.9-0.5c-0.3-0.5-0.1-1.1,0.4-1.4c0.2-0.1,4.5-2.6,4.6-9.1c0-0.6,0.5-1,1.1-1
			c0.6,0,1,0.5,1,1.1c-0.1,7.7-5.5,10.7-5.7,10.9C449.8,256.2,449.6,256.3,449.4,256.3z"/>
		<path class="st4" d="M447.7,243.7c-0.4,0-0.7-0.2-0.9-0.5c-0.3-0.5-0.1-1.1,0.4-1.4c0.2-0.1,4.5-2.6,4.6-9.1c0-0.6,0.5-1,1.1-1
			c0.6,0,1,0.5,1,1.1c-0.1,7.7-5.5,10.7-5.7,10.9C448.1,243.6,447.9,243.7,447.7,243.7z"/>
		<path class="st4" d="M435.6,251c-0.4,0-0.7-0.2-0.9-0.5c-0.3-0.5-0.1-1.1,0.4-1.4c0.2-0.1,4.5-2.6,4.6-9.1c0-0.6,0.5-1,1.1-1
			c0,0,0,0,0,0c0.6,0,1,0.5,1,1.1c-0.1,7.7-5.5,10.7-5.7,10.9C436,250.9,435.8,251,435.6,251z"/>
		<path class="st4" d="M444.7,234.8c-0.4,0-0.7-0.2-0.9-0.5c-0.3-0.5-0.1-1.1,0.4-1.4l0,0c0.2-0.1,4.5-2.6,4.6-9.1
			c0-0.6,0.5-1,1.1-1c0,0,0,0,0,0c0.6,0,1,0.5,1,1.1c-0.1,7.7-5.5,10.7-5.7,10.9C445,234.8,444.9,234.8,444.7,234.8z"/>
		<path class="st4" d="M435,235.9c-0.4,0-0.7-0.2-0.9-0.5c-0.3-0.5-0.1-1.1,0.4-1.4c0.2-0.1,4.5-2.6,4.6-9.1c0-0.6,0.4-1.1,1.1-1
			c0.6,0,1,0.5,1,1.1c-0.1,7.7-5.5,10.7-5.7,10.9C435.3,235.8,435.2,235.9,435,235.9z"/>
		<path class="st4" d="M459.3,235.5c-0.4,0-0.7-0.2-0.9-0.5c-0.3-0.5-0.1-1.1,0.4-1.4c0.2-0.1,4.5-2.6,4.6-9.1c0-0.6,0.5-1.1,1.1-1
			c0.6,0,1,0.5,1,1.1c-0.1,7.7-5.5,10.7-5.7,10.9C459.6,235.4,459.5,235.5,459.3,235.5z"/>
		<path class="st4" d="M456.5,226.5c-0.3,0-0.6-0.1-0.8-0.3c-0.4-0.4-0.4-1.1,0.1-1.5c0.2-0.2,3.9-3.7,2.5-9.8
			c-0.1-0.6,0.2-1.1,0.8-1.3c0.6-0.1,1.1,0.2,1.3,0.8c1.7,7.4-2.9,11.7-3.1,11.9C457,226.4,456.8,226.5,456.5,226.5z"/>
	</g>
	<path class="st3" d="M406.6,182.8c0,0-0.1,0-0.1,0c-0.6-0.1-1-0.6-0.9-1.2c4.5-40.4-24.9-66-25.1-66.3c-0.4-0.4-0.5-1-0.1-1.5
		c0.4-0.4,1-0.5,1.5-0.1c0.3,0.3,30.5,26.6,25.9,68.1C407.6,182.4,407.1,182.8,406.6,182.8z"/>
	<path class="st3" d="M403.6,209c-0.2,0-0.4,0-0.5-0.2c-0.5-0.3-0.7-1-0.3-1.4c5.4-8.8,1.6-14.9,1.5-15.2c-0.3-0.5-0.2-1.1,0.3-1.5
		c0.5-0.3,1.1-0.2,1.4,0.3c0.2,0.3,4.7,7.4-1.4,17.4C404.3,208.8,404,209,403.6,209z"/>
	<path class="st3" d="M407.5,83.3c-0.4,0-0.7-0.2-0.9-0.5c-0.3-0.5-0.1-1.1,0.4-1.4L443.9,60c0.5-0.3,1.1-0.1,1.4,0.4
		c0.3,0.5,0.1,1.1-0.4,1.4l-36.9,21.3C407.9,83.2,407.7,83.3,407.5,83.3z"/>
	<path class="st3" d="M183,249.3c-0.4,0-0.7-0.2-0.9-0.5c-16.8-29.2-6.2-72-6.1-72.4c0.1-0.6,0.7-0.9,1.3-0.8
		c0.6,0.1,0.9,0.7,0.8,1.3c-0.1,0.4-10.5,42.4,5.9,70.9c0.3,0.5,0.1,1.1-0.4,1.4C183.4,249.2,183.2,249.3,183,249.3z"/>
</g>
</svg>
